<svg width="24" height="24" viewBox="0 0 24 24" fill="none" xmlns="http://www.w3.org/2000/svg">
<path d="M18 8H6C5.44772 8 5 8.44772 5 9V18C5 18.5523 5.44772 19 6 19H18C18.5523 19 19 18.5523 19 18V9C19 8.44772 18.5523 8 18 8Z" stroke="white" stroke-width="1.5" stroke-linecap="round" stroke-linejoin="round"/>
<path d="M10 13.5H14" stroke="white" stroke-width="1.5" stroke-linecap="round" stroke-linejoin="round"/>
<path d="M19.274 5H4.72594C4.40909 5 4.11098 5.15016 3.92238 5.40477L3.18164 6.40477C2.69278 7.06474 3.16389 8 3.9852 8H20.0148C20.8361 8 21.3072 7.06474 20.8183 6.40477L20.0776 5.40477C19.889 5.15016 19.5909 5 19.274 5Z" stroke="white" stroke-width="1.5" stroke-linecap="round" stroke-linejoin="round"/>
</svg>
