<svg width="18" height="18" viewBox="0 0 18 18" fill="none" xmlns="http://www.w3.org/2000/svg">
<path d="M6 8.25V5.91667C6 5.14312 6.31607 4.40125 6.87868 3.85427C7.44129 3.30729 8.20435 3 9 3C9.79565 3 10.5587 3.30729 11.1213 3.85427C11.6839 4.40125 12 5.14312 12 5.91667V8.25" stroke="#192F66" stroke-linecap="round" stroke-linejoin="round"/>
<path d="M3.75 9C3.75 8.58579 4.08579 8.25 4.5 8.25H13.5C13.9142 8.25 14.25 8.58579 14.25 9V15C14.25 15.4142 13.9142 15.75 13.5 15.75H4.5C4.08579 15.75 3.75 15.4142 3.75 15V9Z" stroke="#192F66" stroke-linecap="round" stroke-linejoin="round"/>
</svg>
