<svg width="120" height="17" viewBox="0 0 120 17" fill="none" xmlns="http://www.w3.org/2000/svg">
<g clip-path="url(#clip0_14_126)">
<path d="M25.1737 12.3801V4.54745H26.8902C29.3665 4.54745 30.7305 5.79856 30.7305 8.38436C30.7305 11.2265 29.6371 12.3188 26.8902 12.3801H25.1737ZM27.5325 1.36813H21.5466V15.5594H27.5325C31.7636 15.5594 34.3575 13.0544 34.3575 8.40387C34.3575 4.01245 31.8019 1.36813 27.5325 1.36813Z" fill="#073772"/>
<path d="M47.3216 1.36813H43.208L40.4391 7.13325L37.6703 1.36813H33.5567L38.627 10.2736V15.5594H42.2541V10.2736L47.3216 1.36813Z" fill="#073772"/>
<path d="M15.998 3.23783L2.48181 17H10.4138C11.9609 17 13.3494 16.3647 14.3635 15.3309C15.3748 14.2972 15.998 12.8817 15.998 11.3045V3.23783Z" fill="#073772"/>
<path d="M15.3092 0H1.89691L8.60443 6.82675L15.3092 0Z" fill="#27AAE1"/>
<path d="M0 1.95886V15.6319L6.69658 8.79397L0 1.95886Z" fill="#006AAC"/>
<path d="M50.6863 1.40157H56.8034C60.764 1.40157 61.5211 4.01524 61.5211 5.77627C61.5211 7.53729 60.764 10.1315 56.8034 10.1119H53.1134V15.5371H50.6863V1.40157ZM53.1134 8.09179H56.6667C57.7546 8.09179 59.0939 7.53729 59.0939 5.75676C59.0939 3.97623 57.9869 3.42173 56.705 3.42173H53.1134V8.09457V8.09179Z" fill="#27AAE1"/>
<path d="M75.9365 8.46796C75.9365 12.5055 73.4519 15.8715 69.2946 15.8715C65.1372 15.8715 62.6526 12.5055 62.6526 8.46796C62.6526 4.43042 65.1372 1.06441 69.2946 1.06441C73.4519 1.06441 75.9365 4.43042 75.9365 8.46796ZM65.0826 8.46796C65.0826 11.1792 66.3262 13.8513 69.2973 13.8513C72.2684 13.8513 73.512 11.1792 73.512 8.46796C73.512 5.75676 72.2684 3.08458 69.2973 3.08458C66.3262 3.08458 65.0826 5.75676 65.0826 8.46796Z" fill="#27AAE1"/>
<path d="M76.3492 1.40157H78.8147L81.3211 12.2101H81.3594L84.1556 1.40157H86.6401L89.3597 12.2101H89.398L91.981 1.40157H94.4464L90.6198 15.5343H88.1544L85.3801 4.72578H85.3391L82.5046 15.5343H80.0009L76.3492 1.40157Z" fill="#27AAE1"/>
<path d="M96.1356 1.40157H106.118V3.53876H98.5627V7.24193H105.555V9.2593H98.5627V13.3971H106.251V15.5343H96.1356V1.40157Z" fill="#27AAE1"/>
<path d="M108.271 1.40157H114.891C117.92 1.40157 119.475 2.82544 119.475 5.22177C119.475 7.93296 117.63 8.62678 117.185 8.78561V8.82462C118.021 8.94444 119.243 9.57696 119.243 11.8145C119.243 13.4585 119.475 14.9631 120 15.5371H117.398C117.029 14.9241 117.029 14.1523 117.029 13.4584C117.029 10.8643 116.504 9.71628 114.271 9.71628H110.699V15.5371H108.271V1.40157ZM110.699 7.83544H114.678C116.212 7.83544 117.048 7.0636 117.048 5.57843C117.048 3.7784 115.903 3.42173 114.64 3.42173H110.699V7.83544Z" fill="#27AAE1"/>
</g>
<defs>
<clipPath id="clip0_14_126">
<rect width="120" height="17" fill="white"/>
</clipPath>
</defs>
</svg>
