<svg width="120" height="17" viewBox="0 0 120 17" fill="none" xmlns="http://www.w3.org/2000/svg">
<g id="logo" clip-path="url(#clip0_14_156)">
<path id="Vector" d="M25.1737 12.3801V4.54748H26.8902C29.3665 4.54748 30.7305 5.79859 30.7305 8.38439C30.7305 11.2265 29.6371 12.3188 26.8902 12.3801H25.1737ZM27.5325 1.36816H21.5466V15.5594H27.5325C31.7636 15.5594 34.3575 13.0544 34.3575 8.4039C34.3575 4.01248 31.8019 1.36816 27.5325 1.36816Z" fill="white"/>
<path id="Vector_2" d="M47.3216 1.36816H43.208L40.4391 7.13329L37.6703 1.36816H33.5567L38.627 10.2736V15.5594H42.2541V10.2736L47.3216 1.36816Z" fill="white"/>
<path id="Vector_3" d="M15.998 3.23785L2.48181 17H10.4138C11.9609 17 13.3494 16.3647 14.3635 15.331C15.3748 14.2972 15.998 12.8817 15.998 11.3046V3.23785Z" fill="white"/>
<path id="Vector_4" d="M15.3092 0H1.89691L8.60443 6.82675L15.3092 0Z" fill="white"/>
<path id="Vector_5" d="M0 1.95886V15.6319L6.69658 8.79397L0 1.95886Z" fill="white"/>
<path id="Vector_6" d="M50.6863 1.40155H56.8034C60.764 1.40155 61.5211 4.01522 61.5211 5.77624C61.5211 7.53727 60.764 10.1314 56.8034 10.1119H53.1134V15.5371H50.6863V1.40155ZM53.1134 8.09177H56.6667C57.7546 8.09177 59.0939 7.53727 59.0939 5.75674C59.0939 3.97621 57.9869 3.42171 56.705 3.42171H53.1134V8.09455V8.09177Z" fill="white"/>
<path id="Vector_7" d="M75.9365 8.46793C75.9365 12.5055 73.4519 15.8715 69.2946 15.8715C65.1372 15.8715 62.6526 12.5055 62.6526 8.46793C62.6526 4.4304 65.1372 1.06439 69.2946 1.06439C73.4519 1.06439 75.9365 4.4304 75.9365 8.46793ZM65.0826 8.46793C65.0826 11.1791 66.3262 13.8513 69.2973 13.8513C72.2684 13.8513 73.512 11.1791 73.512 8.46793C73.512 5.75674 72.2684 3.08455 69.2973 3.08455C66.3262 3.08455 65.0826 5.75674 65.0826 8.46793Z" fill="white"/>
<path id="Vector_8" d="M76.3492 1.40155H78.8147L81.3211 12.2101H81.3594L84.1556 1.40155H86.6401L89.3597 12.2101H89.398L91.981 1.40155H94.4464L90.6198 15.5343H88.1544L85.3801 4.72576H85.3391L82.5046 15.5343H80.0009L76.3492 1.40155Z" fill="white"/>
<path id="Vector_9" d="M96.1356 1.40155H106.118V3.53874H98.5627V7.2419H105.555V9.25928H98.5627V13.3971H106.251V15.5343H96.1356V1.40155Z" fill="white"/>
<path id="Vector_10" d="M108.271 1.40155H114.891C117.92 1.40155 119.475 2.82541 119.475 5.22174C119.475 7.93294 117.63 8.62676 117.185 8.78559V8.8246C118.021 8.94441 119.243 9.57693 119.243 11.8144C119.243 13.4584 119.475 14.9631 120 15.5371H117.398C117.029 14.9241 117.029 14.1522 117.029 13.4584C117.029 10.8643 116.504 9.71625 114.271 9.71625H110.699V15.5371H108.271V1.40155ZM110.699 7.83541H114.678C116.212 7.83541 117.048 7.06357 117.048 5.57841C117.048 3.77837 115.903 3.42171 114.64 3.42171H110.699V7.83541Z" fill="white"/>
</g>
<defs>
<clipPath id="clip0_14_156">
<rect width="120" height="17" fill="white"/>
</clipPath>
</defs>
</svg>
